PathFileType	4	(X/Y/Z)	/Users/itak/Documents/Research/Walk-IL/dataset/trc/00264_00009.trc
DataRate	CameraRate	NumFrames	NumMarkers	Units	OrigDataRate	OrigDataStartFrame	OrigNumFrames
100.000000	100.000000	4	53	mm	100.000000	122	488
Frame#	Time	RPSI			LPSI			L3			STRN			T10			C7			CLAV			RBAK			LBAK			LSHO			LUPA			LAEL			LAOL			LWTS			LWPS			LFRA			LIFD			LHPS			LHTS			RSHO			RUPA			RAEL			RAOL			RWTS			RWPS			RFRA			RIFD			RHTS			RHPS			RBHD			LFHD			RFHD			LBHD			LHIP			RHIP			RASI			LASI			LKNE			LTHI			LANK			LTIP			LTOE			LMT1			LMT5			LHEE			RKNE			RTHI			RANK			RTIP			RTOE			RMT1			RMT5			RHEE			
		X1	Y1	Z1	X2	Y2	Z2	X3	Y3	Z3	X4	Y4	Z4	X5	Y5	Z5	X6	Y6	Z6	X7	Y7	Z7	X8	Y8	Z8	X9	Y9	Z9	X10	Y10	Z10	X11	Y11	Z11	X12	Y12	Z12	X13	Y13	Z13	X14	Y14	Z14	X15	Y15	Z15	X16	Y16	Z16	X17	Y17	Z17	X18	Y18	Z18	X19	Y19	Z19	X20	Y20	Z20	X21	Y21	Z21	X22	Y22	Z22	X23	Y23	Z23	X24	Y24	Z24	X25	Y25	Z25	X26	Y26	Z26	X27	Y27	Z27	X28	Y28	Z28	X29	Y29	Z29	X30	Y30	Z30	X31	Y31	Z31	X32	Y32	Z32	X33	Y33	Z33	X34	Y34	Z34	X35	Y35	Z35	X36	Y36	Z36	X37	Y37	Z37	X38	Y38	Z38	X39	Y39	Z39	X40	Y40	Z40	X41	Y41	Z41	X42	Y42	Z42	X43	Y43	Z43	X44	Y44	Z44	X45	Y45	Z45	X46	Y46	Z46	X47	Y47	Z47	X48	Y48	Z48	X49	Y49	Z49	X50	Y50	Z50	X51	Y51	Z51	X52	Y52	Z52	X53	Y53	Z53	

123	1.22	-1457.30419921875	1041.23046875	672.3129272460938	-1450.62158203125	1042.765869140625	551.2609252929688	-1457.03564453125	1126.456787109375	589.03955078125	-1197.597778320312	1300.07763671875	593.858642578125	-1452.135498046875	1254.309692382812	589.9517211914062	-1376.15673828125	1512.027099609375	582.1790161132812	-1216.1298828125	1418.936767578125	593.0280151367188	-1461.073120117188	1378.286499023438	652.1450805664062	-1394.09912109375	1472.685546875	471.6461486816406	-1303.014404296875	1467.448974609375	419.7249145507812	-1334.999145507812	1349.204833984375	341.5256042480469	-1327.070556640625	1136.865356445312	320.1666564941406	-1401.2216796875	1123.417724609375	364.7661743164062	-1233.491088867188	908.6486206054688	394.194091796875	-1254.942504882812	886.9069213867188	315.1333923339844	-1302.955200195312	1029.124633789062	312.8422241210938	-1221.763916015625	716.145751953125	398.5771484375	-1234.614135742188	799.5175170898438	325.933837890625	-1193.8671875	809.0569458007812	379.5657958984375	-1329.257080078125	1471.1552734375	755.1404418945312	-1356.9677734375	1408.309814453125	820.5048828125	-1401.946166992188	1131.228393554688	862.93408203125	-1420.703979492188	1124.448608398438	769.3828125	-1277.713500976562	908.5302734375	847.069091796875	-1340.899169921875	896.76220703125	903.4675903320312	-1383.049560546875	1062.28759765625	881.2825317382812	-1237.424926757812	730.3509521484375	865.2125244140625	-1226.475830078125	806.3748779296875	889.7159423828125	-1286.986694335938	796.5390014648438	924.6182861328125	-1332.577514648438	1664.491088867188	621.655517578125	-1122.124145507812	1703.12451171875	545.2086181640625	-1132.474487304688	1707.792724609375	644.397705078125	-1274.15576171875	1664.17724609375	493.752685546875	-1348.789794921875	973.0877075195312	413.5956726074219	-1351.430786132812	1012.671508789062	783.5555419921875	-1263.2255859375	1050.71435546875	740.6254272460938	-1247.072998046875	1016.200622558594	461.4854431152344	-1342.134765625	492.9014282226562	499.2113647460938	-1333.638916015625	634.1262817382812	459.8050537109375	-1486.59619140625	36.79249572753906	556.896728515625	-1418.552368164062	273.7872619628906	517.9805908203125	-1267.768188476562	47.022216796875	598.6682739257812	-1333.770385742188	37.54549789428711	646.6671142578125	-1358.808959960938	42.21887969970703	532.9755859375	-1547.416137695312	42.81836700439453	610.5369873046875	-1169.089965820312	546.2545166015625	766.4096069335938	-1244.434692382812	804.770751953125	795.7094116210938	-1243.797119140625	55.01606369018555	802.1270751953125	-1155.018432617188	425.0594177246094	762.8298950195312	-1042.651611328125	89.81315612792969	745.8494873046875	-1098.67822265625	73.84664154052734	705.5713500976562	-1133.91943359375	63.52242660522461	818.140625	-1310.880126953125	50.41580581665039	748.0682983398438	
124	1.23	-1453.437133789062	1040.799682617188	672.6627807617188	-1447.326904296875	1042.3193359375	551.5657348632812	-1453.543090820312	1126.162841796875	589.3826904296875	-1193.793090820312	1299.4716796875	592.8411254882812	-1448.3037109375	1253.991943359375	590.2679443359375	-1372.1943359375	1511.611083984375	582.080322265625	-1212.158813476562	1418.374633789062	592.1041870117188	-1456.880859375	1377.96484375	652.532958984375	-1390.729125976562	1472.297241210938	471.6445617675781	-1299.89794921875	1466.981811523438	419.2642822265625	-1332.409423828125	1348.770385742188	341.2176208496094	-1324.851806640625	1136.411865234375	319.8217468261719	-1398.861206054688	1123.0810546875	364.7176208496094	-1231.57275390625	907.9260864257812	393.41552734375	-1253.358642578125	886.2877807617188	314.4113159179688	-1301.021362304688	1028.618896484375	312.3807983398438	-1220.62646484375	715.493896484375	397.7271728515625	-1233.232788085938	798.8427124023438	325.1049499511719	-1192.328491210938	808.1589965820312	378.6424255371094	-1324.395263671875	1470.694458007812	754.8011474609375	-1351.775512695312	1407.877319335938	820.3069458007812	-1396.63720703125	1130.976806640625	863.382568359375	-1415.987182617188	1124.040893554688	769.97314453125	-1273.700805664062	907.4649658203125	847.2171630859375	-1336.117309570312	896.4699096679688	904.0957641601562	-1377.819946289062	1062.01904296875	881.6817016601562	-1234.852172851562	728.8607788085938	864.9429931640625	-1222.482055664062	804.7340087890625	889.1444091796875	-1283.130126953125	795.8342895507812	924.9791870117188	-1328.582885742188	1663.933837890625	621.3019409179688	-1118.415283203125	1702.739135742188	544.0410766601562	-1128.421875	1707.336669921875	643.27880859375	-1270.651000976562	1663.72998046875	493.1281433105469	-1346.267822265625	972.6062622070312	413.4063720703125	-1346.95166015625	1012.341247558594	783.2708129882812	-1258.901123046875	1050.413452148438	739.8923950195312	-1244.241088867188	1015.677856445312	460.6904907226562	-1340.919799804688	492.5657653808594	498.9017944335938	-1331.887084960938	633.7407836914062	459.4815673828125	-1486.569091796875	36.80728912353516	556.88916015625	-1417.946044921875	273.6283264160156	517.8377075195312	-1267.7724609375	47.00048828125	598.6411743164062	-1333.750854492188	37.57489395141602	646.6119384765625	-1358.812133789062	42.15446472167969	532.8595581054688	-1547.484008789062	42.90496063232422	610.4840087890625	-1162.086303710938	547.1268310546875	765.324951171875	-1239.085571289062	805.04541015625	795.3638916015625	-1228.36962890625	54.60909652709961	801.5298461914062	-1146.1337890625	426.1837768554688	761.546875	-1028.411865234375	91.77069091796875	742.6416625976562	-1084.842895507812	75.31546020507812	703.0748291015625	-1118.359741210938	64.25630950927734	816.0587158203125	-1296.129150390625	49.38455200195312	748.3548583984375	
125	1.24	-1449.484985351562	1040.325317382812	673.0120239257812	-1443.937377929688	1041.832763671875	551.8751831054688	-1449.96728515625	1125.843627929688	589.7427368164062	-1189.9169921875	1298.833374023438	591.8405151367188	-1444.4326171875	1253.65771484375	590.6217041015625	-1368.134887695312	1511.171630859375	582.0194091796875	-1208.09423828125	1417.780639648438	591.1940307617188	-1452.588012695312	1377.6328125	652.9832763671875	-1387.291748046875	1471.882690429688	471.6872863769531	-1296.727661132812	1466.4853515625	418.837890625	-1329.789794921875	1348.300170898438	340.94970703125	-1322.61962890625	1135.937622070312	319.5135498046875	-1396.467651367188	1122.726196289062	364.731689453125	-1229.640747070312	907.1557006835938	392.6112670898438	-1251.799682617188	885.6399536132812	313.6664123535156	-1299.092651367188	1028.091552734375	311.932861328125	-1219.517944335938	714.778564453125	396.8072204589844	-1231.88671875	798.1348266601562	324.2359924316406	-1190.762451171875	807.2449951171875	377.6536865234375	-1319.407836914062	1470.215454101562	754.4873657226562	-1346.453002929688	1407.434326171875	820.1439208984375	-1391.192626953125	1130.70947265625	863.868896484375	-1411.167236328125	1123.632690429688	770.6195678710938	-1269.4873046875	906.4522705078125	847.3026733398438	-1331.048217773438	896.1658935546875	904.6759033203125	-1372.4169921875	1061.722290039062	882.10009765625	-1232.046752929688	727.4013671875	864.5173950195312	-1218.2265625	803.0859375	888.3975219726562	-1278.975708007812	795.1099853515625	925.2174072265625	-1324.48291015625	1663.365112304688	620.9590454101562	-1114.589599609375	1702.29443359375	542.8793334960938	-1124.250366210938	1706.834106445312	642.1610717773438	-1267.033569335938	1663.244873046875	492.5044860839844	-1343.615966796875	972.1007080078125	413.2357482910156	-1342.419311523438	1011.947631835938	782.927490234375	-1254.4931640625	1050.07763671875	739.1732788085938	-1241.324584960938	1015.141723632812	459.9143371582031	-1339.6357421875	492.2230224609375	498.6226806640625	-1330.045776367188	633.3505859375	459.1874084472656	-1486.54296875	36.82281494140625	556.8792724609375	-1417.320922851562	273.4793395996094	517.6900634765625	-1267.778076171875	46.9827766418457	598.6126708984375	-1333.731567382812	37.60829925537109	646.5548706054688	-1358.820190429688	42.09893035888672	532.744140625	-1547.53271484375	42.96255111694336	610.4546508789062	-1155.050048828125	547.96240234375	764.2440185546875	-1233.691040039062	805.2763671875	795.0557861328125	-1213.02685546875	54.28993988037109	800.5590209960938	-1137.246948242188	427.2858581542969	760.209716796875	-1014.274536132812	93.81049346923828	739.2222290039062	-1071.072875976562	76.90258026123047	700.3316040039062	-1102.931030273438	65.05677795410156	813.683837890625	-1281.383666992188	48.44202041625977	748.2981567382812	
126	1.25	-1445.438354492188	1039.80908203125	673.3646240234375	-1440.448486328125	1041.307739257812	552.1936645507812	-1446.301025390625	1125.494750976562	590.119384765625	-1185.967651367188	1298.163452148438	590.8587036132812	-1440.519409179688	1253.30126953125	591.0126953125	-1363.978271484375	1510.706420898438	581.9946899414062	-1203.937744140625	1417.156005859375	590.2999267578125	-1448.193359375	1377.28515625	653.4886474609375	-1383.785400390625	1471.438598632812	471.7738952636719	-1293.50341796875	1465.95654296875	418.4453735351562	-1327.138916015625	1347.792724609375	340.7225341796875	-1320.378295898438	1135.440307617188	319.2416381835938	-1394.042846679688	1122.355102539062	364.8076782226562	-1227.694580078125	906.3392333984375	391.7815246582031	-1250.26416015625	884.963134765625	312.9021301269531	-1297.171752929688	1027.5419921875	311.4980773925781	-1218.43212890625	713.9906005859375	395.8189697265625	-1230.574340820312	797.3939208984375	323.3299255371094	-1189.178833007812	806.3085327148438	376.6036071777344	-1314.30224609375	1469.716430664062	754.1976318359375	-1341.007934570312	1406.978759765625	820.0150756835938	-1385.62646484375	1130.421142578125	864.3839721679688	-1406.249877929688	1123.222290039062	771.3118286132812	-1265.046142578125	905.5090942382812	847.3215942382812	-1325.698364257812	895.8433837890625	905.1942138671875	-1366.854858398438	1061.395385742188	882.53271484375	-1228.974487304688	725.9922485351562	863.9351196289062	-1213.734130859375	801.456298828125	887.5070190429688	-1274.515258789062	794.3663330078125	925.3239135742188	-1320.276489257812	1662.783569335938	620.630126953125	-1110.650634765625	1701.790161132812	541.722900390625	-1119.958984375	1706.284545898438	641.0435791015625	-1263.306274414062	1662.721557617188	491.8850402832031	-1340.832885742188	971.5675048828125	413.0840454101562	-1337.802978515625	1011.49365234375	782.5387573242188	-1249.995361328125	1049.703491210938	738.468017578125	-1238.315795898438	1014.59130859375	459.1576538085938	-1338.290893554688	491.8733520507812	498.3713684082031	-1328.124145507812	632.955078125	458.9197387695312	-1486.519165039062	36.83883666992188	556.8674926757812	-1416.690795898438	273.3478393554688	517.5345458984375	-1267.785766601562	46.96870803833008	598.5835571289062	-1333.712158203125	37.64595413208008	646.4955444335938	-1358.834594726562	42.05033874511719	532.6309204101562	-1547.559204101562	42.99127578735352	610.4513549804688	-1147.981201171875	548.7554931640625	763.1582641601562	-1228.243408203125	805.4608154296875	794.7792358398438	-1197.808471679688	54.05365371704102	799.2286987304688	-1128.368530273438	428.3603515625	758.81396484375	-1000.264038085938	95.91565704345703	735.6298828125	-1057.385131835938	78.58608245849609	697.3745727539062	-1087.675537109375	65.92180633544922	811.044921875	-1266.679809570312	47.58175277709961	747.8991088867188	
